<svg width="14" height="13" viewBox="0 0 14 13" fill="none" xmlns="http://www.w3.org/2000/svg">
<path d="M7.72723 11.9603C7.62177 11.8547 7.56253 11.7117 7.56253 11.5625C7.56253 11.4133 7.62177 11.2703 7.72723 11.1648L11.8295 7.06251H0.8125C0.663316 7.06251 0.520242 7.00325 0.414753 6.89776C0.309263 6.79227 0.25 6.6492 0.25 6.50001C0.25 6.35083 0.309263 6.20776 0.414753 6.10227C0.520242 5.99678 0.663316 5.93751 0.8125 5.93751H11.8295L7.72723 1.83525C7.67499 1.78302 7.63356 1.721 7.6053 1.65276C7.57703 1.58451 7.56248 1.51136 7.56249 1.43749C7.56249 1.36362 7.57704 1.29047 7.60532 1.22223C7.63359 1.15398 7.67502 1.09197 7.72726 1.03974C7.7795 0.987507 7.84151 0.946076 7.90976 0.91781C7.97801 0.889544 8.05115 0.874997 8.12502 0.875C8.19889 0.875003 8.27204 0.889556 8.34029 0.917828C8.40853 0.9461 8.47054 0.987537 8.52277 1.03977L13.5853 6.10227C13.5871 6.10409 13.5886 6.10612 13.5904 6.10797C13.6015 6.11937 13.6123 6.13108 13.6224 6.14337C13.6281 6.15024 13.633 6.15752 13.6383 6.16459C13.644 6.17221 13.6499 6.17969 13.6552 6.18762C13.6607 6.1958 13.6654 6.20431 13.6705 6.21272C13.6748 6.22007 13.6794 6.22724 13.6835 6.23483C13.688 6.24328 13.6919 6.252 13.6959 6.26061C13.6997 6.26865 13.7037 6.27654 13.7072 6.28475C13.7106 6.29306 13.7134 6.30157 13.7164 6.31002C13.7196 6.31888 13.723 6.32767 13.7257 6.33673C13.7283 6.34514 13.7301 6.35369 13.7323 6.3622C13.7346 6.37147 13.7372 6.38067 13.7391 6.39012C13.741 6.39994 13.7422 6.40983 13.7436 6.41968C13.7448 6.42799 13.7464 6.43612 13.7472 6.4445C13.749 6.46297 13.75 6.48147 13.75 6.50001C13.75 6.51855 13.749 6.53706 13.7472 6.55553C13.7464 6.56391 13.7448 6.57204 13.7436 6.58035C13.7422 6.5902 13.741 6.60009 13.7391 6.60991C13.7372 6.61935 13.7346 6.62855 13.7323 6.63782C13.7301 6.64634 13.7283 6.65489 13.7257 6.6633C13.723 6.67236 13.7196 6.68115 13.7164 6.69001C13.7134 6.69845 13.7106 6.70697 13.7072 6.71528C13.7037 6.72348 13.6997 6.73138 13.6959 6.73941C13.6919 6.74803 13.688 6.75675 13.6835 6.7652C13.6794 6.77278 13.6748 6.77996 13.6705 6.78731C13.6654 6.79572 13.6607 6.80423 13.6552 6.8124C13.6499 6.82033 13.644 6.82782 13.6383 6.83544C13.633 6.84251 13.6281 6.84979 13.6224 6.85666C13.6121 6.86919 13.6012 6.8811 13.5898 6.89271C13.5882 6.89432 13.5869 6.89614 13.5853 6.89775L8.52277 11.9603C8.47054 12.0125 8.40853 12.0539 8.34027 12.0822C8.27203 12.1105 8.19887 12.125 8.125 12.125C8.05113 12.125 7.97798 12.1105 7.90972 12.0822C7.84147 12.0539 7.77946 12.0125 7.72723 11.9603Z" fill="#19242F"/>
</svg>
