<svg width="18" height="18" viewBox="0 0 18 18" fill="none" xmlns="http://www.w3.org/2000/svg">
<path d="M16.0697 3.48236C15.9829 3.282 15.8391 3.11163 15.6561 2.99251C15.4732 2.87339 15.2592 2.81079 15.0409 2.81254H2.95899C2.74104 2.81254 2.52778 2.87585 2.34514 2.99478C2.16249 3.11371 2.01832 3.28313 1.93015 3.48245C1.84198 3.68177 1.81361 3.90241 1.84848 4.11756C1.88335 4.3327 1.97996 4.53309 2.12657 4.69436L6.74993 9.78V15.2615C6.74979 15.4652 6.80497 15.6651 6.90957 15.8398C7.01418 16.0146 7.16429 16.1577 7.34387 16.2538C7.52345 16.3499 7.72575 16.3954 7.92919 16.3855C8.13263 16.3756 8.32956 16.3106 8.49895 16.1975L10.7489 14.6976C10.9032 14.595 11.0296 14.4559 11.1171 14.2925C11.2045 14.1292 11.2501 13.9468 11.2499 13.7615V9.78006L15.8733 4.69429C16.0215 4.5339 16.1191 4.33343 16.154 4.1179C16.1889 3.90236 16.1596 3.68132 16.0697 3.48236Z" fill="#19242F"/>
</svg>
